<svg width="31" height="31" viewBox="0 0 31 31" fill="none" xmlns="http://www.w3.org/2000/svg">
    <circle cx="15.426" cy="15.4619" r="14.25" stroke="#9F9F9F" stroke-width="1.5"/>
    <path d="M22.4217 22.2281V20.479C22.4217 19.5513 22.0532 18.6615 21.3972 18.0055C20.7411 17.3495 19.8514 16.981 18.9237 16.981H11.9275C10.9998 16.981 10.11 17.3495 9.454 18.0055C8.79799 18.6615 8.42944 19.5513 8.42944 20.479V22.2281" stroke="#9F9F9F" stroke-width="1.5" stroke-linecap="round" stroke-linejoin="round"/>
    <path d="M15.4256 13.483C17.3575 13.483 18.9236 11.9168 18.9236 9.98489C18.9236 8.05296 17.3575 6.48682 15.4256 6.48682C13.4936 6.48682 11.9275 8.05296 11.9275 9.98489C11.9275 11.9168 13.4936 13.483 15.4256 13.483Z" stroke="#9F9F9F" stroke-width="1.5" stroke-linecap="round" stroke-linejoin="round"/>
</svg>
