<svg width="31" height="31" viewBox="0 0 31 31" fill="none" xmlns="http://www.w3.org/2000/svg">
<path d="M9.26038 28.314H5.51038C4.84733 28.314 4.21145 28.0506 3.74261 27.5817C3.27377 27.1129 3.01038 26.477 3.01038 25.814V17.064C3.01038 16.4009 3.27377 15.765 3.74261 15.2962C4.21145 14.8274 4.84733 14.564 5.51038 14.564H9.26038M18.0104 12.064V7.06396C18.0104 6.0694 17.6153 5.11558 16.912 4.41231C16.2088 3.70905 15.2549 3.31396 14.2604 3.31396L9.26038 14.564V28.314H23.3604C23.9633 28.3208 24.5483 28.1095 25.0078 27.719C25.4672 27.3285 25.77 26.7851 25.8604 26.189L27.5854 14.939C27.6398 14.5807 27.6156 14.2148 27.5146 13.8668C27.4135 13.5187 27.238 13.1968 27.0002 12.9234C26.7624 12.6499 26.468 12.4314 26.1373 12.283C25.8067 12.1346 25.4478 12.0599 25.0854 12.064H18.0104Z" stroke="#7C7C7C" stroke-width="1.5" stroke-linecap="round" stroke-linejoin="round"/>
</svg>
